<svg xmlns="http://www.w3.org/2000/svg" xmlns:xlink="http://www.w3.org/1999/xlink" width="500" zoomAndPan="magnify" viewBox="0 0 375 374.999991" height="500" preserveAspectRatio="xMidYMid meet" version="1.0"><defs><g/><clipPath id="434154286c"><path d="M 0.15625 0.878906 L 196.453125 0.878906 L 196.453125 225.761719 L 0.15625 225.761719 Z M 0.15625 0.878906 " clip-rule="nonzero"/></clipPath><clipPath id="bcfafc46ab"><rect x="0" width="198" y="0" height="226"/></clipPath></defs><g transform="matrix(1, 0, 0, 1, 84, 56)"><g clip-path="url(#bcfafc46ab)"><path fill="#ffffff" d="M 162.445312 76.199219 C 162.046875 75.464844 161.523438 74.742188 160.429688 74.191406 L 144.835938 65.183594 C 144.621094 65.0625 144.390625 64.96875 144.144531 64.90625 C 144.070312 64.886719 143.992188 64.886719 143.90625 64.875 C 143.746094 64.847656 143.582031 64.816406 143.421875 64.816406 L 143.390625 64.816406 L 143.390625 64.824219 C 142.929688 64.832031 142.476562 64.957031 142.078125 65.1875 L 106.992188 85.445312 L 106.960938 85.382812 L 104.128906 87.023438 C 100.714844 88.992188 96.515625 88.992188 93.101562 87.023438 L 77.761719 78.167969 C 76.914062 77.675781 76.386719 76.765625 76.386719 75.777344 C 76.386719 74.792969 76.914062 73.882812 77.761719 73.390625 L 93.101562 64.542969 C 96.515625 62.570312 100.714844 62.570312 104.128906 64.542969 L 107.824219 66.671875 C 108.675781 67.164062 109.722656 67.164062 110.578125 66.671875 L 124.859375 58.425781 C 125.714844 57.933594 126.238281 57.023438 126.238281 56.039062 C 126.238281 55.054688 125.714844 54.144531 124.859375 53.652344 L 104.128906 41.679688 C 100.714844 39.710938 96.515625 39.710938 93.101562 41.679688 L 42.316406 71.003906 C 38.640625 73.125 38.640625 78.429688 42.316406 80.550781 L 93.101562 109.875 C 96.515625 111.84375 100.714844 111.84375 104.128906 109.875 L 143.390625 87.207031 L 143.390625 138.84375 L 130.777344 146.152344 L 104.128906 161.582031 C 103.285156 162.066406 102.382812 162.4375 101.445312 162.691406 C 98.632812 163.4375 95.632812 163.035156 93.101562 161.582031 L 56.59375 140.503906 C 54.886719 139.519531 53.835938 137.699219 53.835938 135.726562 L 53.835938 105.628906 C 53.835938 104.644531 53.308594 103.730469 52.457031 103.246094 L 38.179688 94.992188 C 37.324219 94.5 36.273438 94.5 35.417969 94.992188 C 34.566406 95.484375 34.042969 96.398438 34.042969 97.382812 L 34.042969 147.160156 C 34.042969 149.128906 35.09375 150.945312 36.800781 151.9375 L 93.101562 184.441406 C 94.753906 185.398438 96.632812 185.898438 98.539062 185.914062 L 98.578125 185.914062 C 98.847656 185.914062 99.117188 185.882812 99.382812 185.867188 C 99.59375 185.851562 99.800781 185.851562 100.007812 185.828125 C 100.292969 185.789062 100.578125 185.71875 100.855469 185.667969 C 101.046875 185.621094 101.238281 185.597656 101.421875 185.550781 C 101.730469 185.472656 102.023438 185.359375 102.316406 185.25 C 102.484375 185.1875 102.644531 185.152344 102.800781 185.089844 C 103.253906 184.90625 103.699219 184.6875 104.125 184.441406 L 152.699219 156.398438 L 160.398438 152.027344 C 162.121094 151.050781 163.191406 149.21875 163.191406 147.234375 L 163.191406 78.960938 C 163.191406 77.976562 162.921875 77.027344 162.445312 76.199219 " fill-opacity="1" fill-rule="nonzero"/><g clip-path="url(#434154286c)"><path fill="#ffffff" d="M 103.992188 25.191406 C 102.355469 24.246094 100.507812 23.742188 98.617188 23.726562 C 96.730469 23.742188 94.878906 24.25 93.238281 25.191406 L 25.394531 64.359375 C 21.992188 66.328125 19.898438 69.957031 19.898438 73.886719 L 19.898438 152.230469 C 19.894531 156.160156 21.992188 159.792969 25.394531 161.753906 L 93.238281 200.921875 C 94.898438 201.882812 96.777344 202.390625 98.691406 202.398438 C 100.609375 202.390625 102.492188 201.882812 104.152344 200.929688 L 171.699219 161.929688 C 175.097656 159.96875 177.199219 156.339844 177.199219 152.40625 L 177.199219 129.769531 C 177.191406 128.785156 177.722656 127.878906 178.566406 127.382812 L 192.953125 119.085938 C 193.796875 118.59375 194.851562 118.59375 195.699219 119.085938 C 196.550781 119.578125 197.074219 120.484375 197.074219 121.46875 L 197.074219 163.628906 C 197.066406 165.429688 196.621094 167.199219 195.773438 168.785156 C 195.558594 169.824219 194.429688 171.046875 192.828125 172.300781 C 192.796875 172.332031 192.753906 172.359375 192.714844 172.390625 C 188.652344 175.554688 181.929688 178.816406 180.738281 179.507812 L 104.152344 223.722656 C 102.4375 224.707031 100.484375 225.214844 98.507812 225.191406 L 98.421875 225.191406 L 98.421875 225.183594 C 96.601562 225.136719 94.816406 224.628906 93.238281 223.722656 L 5.65625 173.152344 C 2.253906 171.191406 0.15625 167.5625 0.15625 163.628906 L 0.15625 62.492188 C 0.15625 60.726562 0.378906 58.929688 1.15625 57.40625 C 1.261719 57.011719 2.320312 55.070312 4.507812 53.46875 C 5.332031 52.914062 6.789062 52.167969 8.15625 51.378906 L 92.992188 2.398438 C 94.699219 1.414062 96.648438 0.910156 98.617188 0.933594 C 100.59375 0.910156 102.53125 1.414062 104.238281 2.398438 L 182.523438 47.59375 C 182.699219 47.699219 182.839844 47.832031 182.992188 47.953125 L 183.984375 48.523438 C 186.644531 49.933594 190.816406 52.085938 193.078125 53.800781 L 193.261719 53.941406 C 193.292969 53.964844 193.324219 53.988281 193.351562 54.007812 C 193.429688 54.074219 193.484375 54.140625 193.5625 54.207031 C 194.390625 54.902344 195.097656 55.71875 195.644531 56.632812 C 195.660156 56.644531 195.667969 56.660156 195.683594 56.675781 L 195.675781 56.675781 C 196.589844 58.203125 197.074219 59.949219 197.074219 61.730469 L 197.074219 98.761719 C 197.074219 99.746094 196.554688 100.652344 195.699219 101.144531 L 181.316406 109.453125 C 180.46875 109.9375 179.414062 109.9375 178.570312 109.453125 C 177.714844 108.960938 177.191406 108.054688 177.191406 107.070312 L 177.191406 73.671875 C 177.191406 69.738281 175.09375 66.105469 171.683594 64.140625 Z M 103.992188 25.191406 " fill-opacity="1" fill-rule="nonzero"/></g></g></g><g fill="#ffffff" fill-opacity="1"><g transform="translate(37.511721, 352.965006)"><g><path d="M 30.3125 0 L 6.515625 0 C 5.722656 0 5.148438 -0.171875 4.796875 -0.515625 C 4.453125 -0.867188 4.28125 -1.441406 4.28125 -2.234375 L 4.28125 -42.40625 C 4.28125 -43.195312 4.453125 -43.765625 4.796875 -44.109375 C 5.148438 -44.460938 5.722656 -44.640625 6.515625 -44.640625 L 26.28125 -44.640625 C 30.332031 -44.640625 33.328125 -43.863281 35.265625 -42.3125 C 37.210938 -40.757812 38.1875 -38.375 38.1875 -35.15625 L 38.1875 -32.171875 C 38.1875 -30.441406 37.882812 -29.023438 37.28125 -27.921875 C 36.6875 -26.828125 35.769531 -26.015625 34.53125 -25.484375 C 37.175781 -25.234375 39.140625 -24.320312 40.421875 -22.75 C 41.703125 -21.175781 42.34375 -18.882812 42.34375 -15.875 L 42.34375 -10.171875 C 42.34375 -6.691406 41.359375 -4.125 39.390625 -2.46875 C 37.429688 -0.820312 34.40625 0 30.3125 0 Z M 18.234375 -34.09375 L 18.234375 -27.40625 L 23.5 -27.40625 C 24.28125 -27.40625 24.867188 -27.609375 25.265625 -28.015625 C 25.660156 -28.429688 25.859375 -29.054688 25.859375 -29.890625 L 25.859375 -31.625 C 25.859375 -32.445312 25.660156 -33.0625 25.265625 -33.46875 C 24.867188 -33.882812 24.28125 -34.09375 23.5 -34.09375 Z M 18.234375 -17.859375 L 18.234375 -10.546875 L 26.28125 -10.546875 C 27.070312 -10.546875 27.660156 -10.75 28.046875 -11.15625 C 28.441406 -11.570312 28.640625 -12.191406 28.640625 -13.015625 L 28.640625 -15.4375 C 28.640625 -16.257812 28.441406 -16.867188 28.046875 -17.265625 C 27.660156 -17.660156 27.070312 -17.859375 26.28125 -17.859375 Z M 18.234375 -17.859375 "/></g></g></g><g fill="#ffffff" fill-opacity="1"><g transform="translate(82.455997, 352.965006)"><g><path d="M 16.125 0 L 6.515625 0 C 5.722656 0 5.148438 -0.171875 4.796875 -0.515625 C 4.453125 -0.867188 4.28125 -1.441406 4.28125 -2.234375 L 4.28125 -42.40625 C 4.28125 -43.195312 4.453125 -43.765625 4.796875 -44.109375 C 5.148438 -44.460938 5.722656 -44.640625 6.515625 -44.640625 L 34.15625 -44.640625 C 34.945312 -44.640625 35.515625 -44.460938 35.859375 -44.109375 C 36.210938 -43.765625 36.390625 -43.195312 36.390625 -42.40625 L 36.390625 -35.03125 C 36.390625 -34.25 36.210938 -33.679688 35.859375 -33.328125 C 35.515625 -32.972656 34.945312 -32.796875 34.15625 -32.796875 L 18.359375 -32.796875 L 18.359375 -26.34375 L 29.140625 -26.34375 C 29.921875 -26.34375 30.488281 -26.164062 30.84375 -25.8125 C 31.195312 -25.46875 31.375 -24.90625 31.375 -24.125 L 31.375 -16.671875 C 31.375 -15.890625 31.195312 -15.320312 30.84375 -14.96875 C 30.488281 -14.625 29.921875 -14.453125 29.140625 -14.453125 L 18.359375 -14.453125 L 18.359375 -2.234375 C 18.359375 -1.441406 18.179688 -0.867188 17.828125 -0.515625 C 17.472656 -0.171875 16.90625 0 16.125 0 Z M 16.125 0 "/></g></g></g><g fill="#ffffff" fill-opacity="1"><g transform="translate(120.767117, 352.965006)"><g><path d="M 30.6875 0 L 14.5625 0 C 13.78125 0 13.128906 -0.144531 12.609375 -0.4375 C 12.097656 -0.726562 11.695312 -1.265625 11.40625 -2.046875 L 5.328125 -17.234375 C 4.960938 -18.140625 4.65625 -18.929688 4.40625 -19.609375 C 4.15625 -20.296875 3.945312 -20.945312 3.78125 -21.5625 C 3.613281 -22.1875 3.5 -22.835938 3.4375 -23.515625 C 3.375 -24.203125 3.34375 -25.046875 3.34375 -26.046875 L 3.34375 -42.40625 C 3.34375 -43.195312 3.519531 -43.765625 3.875 -44.109375 C 4.226562 -44.460938 4.796875 -44.640625 5.578125 -44.640625 L 15.4375 -44.640625 C 16.21875 -44.640625 16.816406 -44.460938 17.234375 -44.109375 C 17.648438 -43.765625 17.859375 -43.195312 17.859375 -42.40625 L 17.859375 -25.296875 C 17.859375 -24.878906 17.898438 -24.460938 17.984375 -24.046875 C 18.066406 -23.640625 18.191406 -23.207031 18.359375 -22.75 L 21.265625 -14.078125 C 21.390625 -13.660156 21.535156 -13.378906 21.703125 -13.234375 C 21.867188 -13.085938 22.113281 -13.015625 22.4375 -13.015625 L 23.125 -13.015625 C 23.457031 -13.015625 23.707031 -13.085938 23.875 -13.234375 C 24.039062 -13.378906 24.179688 -13.660156 24.296875 -14.078125 L 27.21875 -22.8125 C 27.382812 -23.269531 27.507812 -23.703125 27.59375 -24.109375 C 27.675781 -24.523438 27.71875 -24.941406 27.71875 -25.359375 L 27.71875 -42.40625 C 27.71875 -43.195312 27.890625 -43.765625 28.234375 -44.109375 C 28.585938 -44.460938 29.160156 -44.640625 29.953125 -44.640625 L 39.6875 -44.640625 C 40.46875 -44.640625 41.03125 -44.460938 41.375 -44.109375 C 41.726562 -43.765625 41.90625 -43.195312 41.90625 -42.40625 L 41.90625 -26.046875 C 41.90625 -25.046875 41.875 -24.203125 41.8125 -23.515625 C 41.75 -22.835938 41.632812 -22.1875 41.46875 -21.5625 C 41.3125 -20.945312 41.109375 -20.296875 40.859375 -19.609375 C 40.609375 -18.929688 40.296875 -18.140625 39.921875 -17.234375 L 33.859375 -2.046875 C 33.566406 -1.265625 33.160156 -0.726562 32.640625 -0.4375 C 32.128906 -0.144531 31.476562 0 30.6875 0 Z M 30.6875 0 "/></g></g></g><g fill="#ffffff" fill-opacity="1"><g transform="translate(165.401406, 352.965006)"><g><path d="M 20.453125 -31.625 L 17.546875 -22.203125 L 27.28125 -22.203125 L 24.359375 -31.625 C 24.203125 -31.988281 24.03125 -32.253906 23.84375 -32.421875 C 23.65625 -32.585938 23.4375 -32.671875 23.1875 -32.671875 L 21.640625 -32.671875 C 21.390625 -32.671875 21.171875 -32.585938 20.984375 -32.421875 C 20.796875 -32.253906 20.617188 -31.988281 20.453125 -31.625 Z M 16.921875 -2.234375 C 16.921875 -1.441406 16.742188 -0.867188 16.390625 -0.515625 C 16.046875 -0.171875 15.476562 0 14.6875 0 L 5.578125 0 C 4.796875 0 4.226562 -0.171875 3.875 -0.515625 C 3.519531 -0.867188 3.34375 -1.441406 3.34375 -2.234375 L 3.34375 -18.59375 C 3.34375 -19.832031 3.539062 -21.257812 3.9375 -22.875 C 4.332031 -24.488281 4.941406 -26.367188 5.765625 -28.515625 L 11.15625 -42.59375 C 11.40625 -43.289062 11.785156 -43.804688 12.296875 -44.140625 C 12.816406 -44.472656 13.492188 -44.640625 14.328125 -44.640625 L 31 -44.640625 C 31.78125 -44.640625 32.429688 -44.472656 32.953125 -44.140625 C 33.472656 -43.804688 33.851562 -43.289062 34.09375 -42.59375 L 39.5 -28.515625 C 40.320312 -26.367188 40.925781 -24.488281 41.3125 -22.875 C 41.707031 -21.257812 41.90625 -19.832031 41.90625 -18.59375 L 41.90625 -2.234375 C 41.90625 -1.441406 41.726562 -0.867188 41.375 -0.515625 C 41.03125 -0.171875 40.46875 0 39.6875 0 L 30.3125 0 C 29.488281 0 28.878906 -0.171875 28.484375 -0.515625 C 28.097656 -0.867188 27.90625 -1.441406 27.90625 -2.234375 L 27.90625 -10.90625 L 16.921875 -10.90625 Z M 16.921875 -2.234375 "/></g></g></g><g fill="#ffffff" fill-opacity="1"><g transform="translate(210.655645, 352.965006)"><g><path d="M 42.28125 -11.71875 C 42.28125 -9.8125 42 -8.082031 41.4375 -6.53125 C 40.882812 -4.988281 39.894531 -3.671875 38.46875 -2.578125 C 37.039062 -1.484375 35.085938 -0.625 32.609375 0 C 30.128906 0.625 26.96875 0.9375 23.125 0.9375 C 19.28125 0.9375 16.117188 0.625 13.640625 0 C 11.160156 -0.625 9.207031 -1.484375 7.78125 -2.578125 C 6.351562 -3.671875 5.359375 -4.988281 4.796875 -6.53125 C 4.242188 -8.082031 3.96875 -9.8125 3.96875 -11.71875 L 3.96875 -42.40625 C 3.96875 -43.195312 4.140625 -43.765625 4.484375 -44.109375 C 4.835938 -44.460938 5.410156 -44.640625 6.203125 -44.640625 L 15.9375 -44.640625 C 16.71875 -44.640625 17.285156 -44.460938 17.640625 -44.109375 C 17.992188 -43.765625 18.171875 -43.195312 18.171875 -42.40625 L 18.171875 -14.140625 C 18.171875 -13.304688 18.476562 -12.609375 19.09375 -12.046875 C 19.71875 -11.492188 21.101562 -11.21875 23.25 -11.21875 C 25.4375 -11.21875 26.835938 -11.492188 27.453125 -12.046875 C 28.078125 -12.609375 28.390625 -13.304688 28.390625 -14.140625 L 28.390625 -42.40625 C 28.390625 -43.195312 28.566406 -43.765625 28.921875 -44.109375 C 29.273438 -44.460938 29.84375 -44.640625 30.625 -44.640625 L 40.046875 -44.640625 C 40.835938 -44.640625 41.40625 -44.460938 41.75 -44.109375 C 42.101562 -43.765625 42.28125 -43.195312 42.28125 -42.40625 Z M 42.28125 -11.71875 "/></g></g></g><g fill="#ffffff" fill-opacity="1"><g transform="translate(256.901766, 352.965006)"><g><path d="M 38.0625 0 L 6.515625 0 C 5.722656 0 5.148438 -0.171875 4.796875 -0.515625 C 4.453125 -0.867188 4.28125 -1.441406 4.28125 -2.234375 L 4.28125 -42.40625 C 4.28125 -43.195312 4.453125 -43.765625 4.796875 -44.109375 C 5.148438 -44.460938 5.722656 -44.640625 6.515625 -44.640625 L 16.125 -44.640625 C 16.90625 -44.640625 17.472656 -44.460938 17.828125 -44.109375 C 18.179688 -43.765625 18.359375 -43.195312 18.359375 -42.40625 L 18.359375 -11.71875 L 26.84375 -11.71875 L 26.84375 -21.765625 C 26.84375 -22.546875 27.019531 -23.113281 27.375 -23.46875 C 27.726562 -23.820312 28.296875 -24 29.078125 -24 L 38.0625 -24 C 38.851562 -24 39.421875 -23.820312 39.765625 -23.46875 C 40.117188 -23.113281 40.296875 -22.546875 40.296875 -21.765625 L 40.296875 -2.234375 C 40.296875 -1.441406 40.117188 -0.867188 39.765625 -0.515625 C 39.421875 -0.171875 38.851562 0 38.0625 0 Z M 38.0625 0 "/></g></g></g><g fill="#ffffff" fill-opacity="1"><g transform="translate(295.646606, 352.965006)"><g><path d="M 25.359375 0 L 15.3125 0 C 14.53125 0 13.960938 -0.171875 13.609375 -0.515625 C 13.253906 -0.867188 13.078125 -1.441406 13.078125 -2.234375 L 13.078125 -32.671875 L 3.96875 -32.671875 C 3.1875 -32.671875 2.617188 -32.847656 2.265625 -33.203125 C 1.910156 -33.554688 1.734375 -34.125 1.734375 -34.90625 L 1.734375 -42.40625 C 1.734375 -43.195312 1.910156 -43.765625 2.265625 -44.109375 C 2.617188 -44.460938 3.1875 -44.640625 3.96875 -44.640625 L 36.703125 -44.640625 C 37.484375 -44.640625 38.050781 -44.460938 38.40625 -44.109375 C 38.757812 -43.765625 38.9375 -43.195312 38.9375 -42.40625 L 38.9375 -34.90625 C 38.9375 -34.125 38.757812 -33.554688 38.40625 -33.203125 C 38.050781 -32.847656 37.484375 -32.671875 36.703125 -32.671875 L 27.59375 -32.671875 L 27.59375 -2.234375 C 27.59375 -1.441406 27.414062 -0.867188 27.0625 -0.515625 C 26.707031 -0.171875 26.140625 0 25.359375 0 Z M 25.359375 0 "/></g></g></g></svg>