<svg xmlns="http://www.w3.org/2000/svg" xmlns:xlink="http://www.w3.org/1999/xlink" width="500" zoomAndPan="magnify" viewBox="0 0 375 374.999991" height="500" preserveAspectRatio="xMidYMid meet" version="1.0"><defs><clipPath id="3eb49843c6"><path d="M 0.773438 0.199219 L 316.515625 0.199219 L 316.515625 361.878906 L 0.773438 361.878906 Z M 0.773438 0.199219 " clip-rule="nonzero"/></clipPath><clipPath id="f3979e47ce"><rect x="0" width="319" y="0" height="362"/></clipPath></defs><g transform="matrix(1, 0, 0, 1, 28, 7)"><g clip-path="url(#f3979e47ce)"><path fill="#ffffff" d="M 261.816406 121.480469 C 261.171875 120.300781 260.332031 119.132812 258.574219 118.246094 L 233.496094 103.761719 C 233.148438 103.5625 232.777344 103.410156 232.382812 103.3125 C 232.257812 103.28125 232.132812 103.28125 232 103.261719 C 231.738281 103.214844 231.476562 103.167969 231.21875 103.171875 L 231.167969 103.167969 L 231.167969 103.183594 C 230.425781 103.195312 229.695312 103.394531 229.054688 103.761719 L 172.621094 136.351562 L 172.570312 136.25 L 168.019531 138.886719 C 162.523438 142.054688 155.769531 142.054688 150.277344 138.886719 L 125.605469 124.644531 C 124.238281 123.851562 123.394531 122.386719 123.394531 120.800781 C 123.394531 119.21875 124.238281 117.753906 125.605469 116.960938 L 150.277344 102.726562 C 155.769531 99.554688 162.523438 99.554688 168.019531 102.726562 L 173.957031 106.15625 C 175.332031 106.945312 177.011719 106.945312 178.386719 106.15625 L 201.363281 92.894531 C 202.738281 92.101562 203.578125 90.636719 203.578125 89.050781 C 203.578125 87.46875 202.738281 86.003906 201.363281 85.210938 L 168.019531 65.957031 C 162.523438 62.789062 155.769531 62.789062 150.277344 65.957031 L 68.589844 113.121094 C 62.675781 116.535156 62.675781 125.066406 68.589844 128.480469 L 150.277344 175.644531 C 155.769531 178.8125 162.523438 178.8125 168.019531 175.644531 L 231.167969 139.183594 L 231.167969 222.242188 L 210.878906 233.996094 L 168.019531 258.816406 C 166.65625 259.59375 165.210938 260.1875 163.699219 260.597656 C 159.171875 261.796875 154.347656 261.152344 150.277344 258.816406 L 91.554688 224.914062 C 88.808594 223.332031 87.117188 220.398438 87.121094 217.230469 L 87.121094 168.816406 C 87.121094 167.230469 86.269531 165.761719 84.902344 164.980469 L 61.933594 151.703125 C 60.558594 150.914062 58.871094 150.914062 57.496094 151.703125 C 56.125 152.496094 55.28125 153.96875 55.28125 155.550781 L 55.28125 235.617188 C 55.28125 238.785156 56.972656 241.703125 59.714844 243.300781 L 150.277344 295.585938 C 152.9375 297.121094 155.953125 297.925781 159.023438 297.949219 L 159.085938 297.949219 C 159.519531 297.949219 159.953125 297.902344 160.382812 297.875 C 160.71875 297.851562 161.050781 297.851562 161.386719 297.816406 C 161.84375 297.753906 162.300781 297.640625 162.746094 297.554688 C 163.058594 297.480469 163.367188 297.445312 163.664062 297.371094 C 164.15625 297.246094 164.628906 297.058594 165.097656 296.886719 C 165.371094 296.789062 165.628906 296.726562 165.878906 296.628906 C 166.609375 296.332031 167.324219 295.984375 168.007812 295.585938 L 246.140625 250.476562 L 258.527344 243.449219 C 261.296875 241.878906 263.015625 238.933594 263.015625 235.742188 L 263.015625 125.917969 C 263.015625 124.335938 262.582031 122.808594 261.816406 121.480469 " fill-opacity="1" fill-rule="nonzero"/><g clip-path="url(#3eb49843c6)"><path fill="#ffffff" d="M 167.796875 39.433594 C 165.160156 37.914062 162.191406 37.101562 159.148438 37.074219 C 156.117188 37.101562 153.132812 37.914062 150.5 39.433594 L 41.375 102.4375 C 35.902344 105.597656 32.53125 111.4375 32.527344 117.757812 L 32.527344 243.773438 C 32.527344 250.097656 35.898438 255.9375 41.375 259.089844 L 150.5 322.09375 C 153.171875 323.640625 156.191406 324.457031 159.269531 324.46875 C 162.351562 324.457031 165.382812 323.640625 168.054688 322.105469 L 276.699219 259.375 C 282.167969 256.222656 285.546875 250.382812 285.546875 244.058594 L 285.546875 207.644531 C 285.535156 206.0625 286.390625 204.601562 287.75 203.808594 L 310.886719 190.460938 C 312.25 189.667969 313.941406 189.667969 315.304688 190.460938 C 316.675781 191.25 317.519531 192.710938 317.519531 194.296875 L 317.519531 262.109375 C 317.507812 265.007812 316.789062 267.851562 315.429688 270.402344 C 315.082031 272.070312 313.261719 274.039062 310.6875 276.054688 C 310.640625 276.105469 310.566406 276.152344 310.503906 276.203125 C 303.972656 281.289062 293.15625 286.535156 291.238281 287.648438 L 168.054688 358.765625 C 165.296875 360.351562 162.152344 361.167969 158.972656 361.128906 L 158.835938 361.128906 L 158.835938 361.117188 C 155.90625 361.042969 153.035156 360.226562 150.5 358.765625 L 9.621094 277.429688 C 4.148438 274.273438 0.777344 268.433594 0.773438 262.109375 L 0.773438 99.433594 C 0.773438 96.59375 1.132812 93.699219 2.382812 91.25 C 2.554688 90.617188 4.261719 87.492188 7.777344 84.917969 C 9.105469 84.027344 11.449219 82.828125 13.644531 81.554688 L 150.105469 2.773438 C 152.851562 1.191406 155.980469 0.375 159.148438 0.414062 C 162.328125 0.375 165.445312 1.1875 168.191406 2.773438 L 294.109375 75.464844 C 294.394531 75.636719 294.617188 75.847656 294.867188 76.046875 L 296.460938 76.960938 C 300.742188 79.230469 307.449219 82.691406 311.085938 85.453125 L 311.382812 85.675781 C 311.433594 85.714844 311.480469 85.75 311.53125 85.78125 C 311.65625 85.890625 311.742188 85.996094 311.867188 86.105469 C 313.203125 87.222656 314.339844 88.535156 315.21875 90.003906 C 315.242188 90.023438 315.257812 90.046875 315.28125 90.074219 L 315.269531 90.074219 C 316.742188 92.535156 317.519531 95.34375 317.519531 98.203125 L 317.519531 157.769531 C 317.519531 159.355469 316.679688 160.8125 315.304688 161.605469 L 292.167969 174.96875 C 290.808594 175.746094 289.113281 175.746094 287.75 174.96875 C 286.378906 174.175781 285.535156 172.714844 285.535156 171.132812 L 285.535156 117.414062 C 285.535156 111.085938 282.160156 105.242188 276.675781 102.082031 L 167.796875 39.429688 Z M 167.796875 39.433594 " fill-opacity="1" fill-rule="nonzero"/></g></g></g></svg>